<?xml version="1.0" encoding="UTF-8" standalone="no"?>
<svg width="443px" height="351px" viewBox="0 0 443 351" version="1.1" xmlns="http://www.w3.org/2000/svg" xmlns:xlink="http://www.w3.org/1999/xlink">
    <!-- Generator: Sketch 3.6.1 (26313) - http://www.bohemiancoding.com/sketch -->
    <title>Artboard 8</title>
    <desc>Created with Sketch.</desc>
    <defs></defs>
    <g id="Page-1" stroke="none" stroke-width="1" fill="none" fill-rule="evenodd">
        <g id="Artboard-8">
            <g id="Group" transform="translate(36.000000, 78.000000)">
                <g id="mo-logo-full">
                    <path d="M185.903353,100.197023 C165.027588,117.028409 129.365735,132.024688 100.847559,125.112726 C88.6071176,122.134437 72.5846765,112.013544 76.4250294,98.8469023 C79.0773529,89.7907907 95.3842647,79.4365209 103.639382,89.5783814 C104.149971,90.2001116 107.604647,94.9970977 104.828324,95.2195349 C103.397765,95.3344 101.127471,91.2977116 99.5510294,90.6696 C92.9644412,88.0495814 87.2558824,94.268707 86.8993824,99.6099349 C86.4425882,106.249321 95.7207059,108.092633 101.387324,107.604 C107.855382,107.04426 113.639618,104.259237 118.363471,100.366586 C128.414765,92.0972093 136.821235,81.5013581 148.864735,75.3834233 C161.727,68.8534326 173.996618,71.4989767 185.903353,77.9788279 L185.916118,77.9706233 C197.824676,71.4871256 210.099765,68.8488744 222.953824,75.374307 C234.998235,81.4986233 243.416559,92.095386 253.462382,100.36294 C258.179853,104.247386 263.968647,107.041526 270.433971,107.595795 C276.097853,108.08534 285.383265,106.240205 284.921912,99.6017302 C284.557206,94.2659721 278.861412,88.0495814 272.268441,90.6650419 C270.702941,91.2931535 268.422618,95.3252837 266.992971,95.2104186 C264.212088,94.9925395 267.673147,90.1882605 268.179176,89.572 C276.445235,79.4274047 292.7485,89.7862326 295.398088,98.8469023 C299.241176,112.00534 283.218735,122.134437 270.978294,125.099051 C242.458294,132.015572 206.794618,117.022028 185.916118,100.193377" id="Fill-1" fill="#000000"></path>
                    <path d="M0,48.4821953 L0,1.28357209 L7.39623529,1.28357209 L18.4987941,41.5301209 L28.8327353,1.28357209 L36.2973529,1.28357209 L36.2973529,48.4821953 L31.9591765,48.4821953 L31.9591765,5.68308837 L20.7982647,48.4821953 L16.3297059,48.4821953 L4.33726471,5.68308837 L4.33726471,48.4821953 L0,48.4821953" id="Fill-2" fill="#0A0A08"></path>
                    <path d="M57.5241471,24.9448744 C57.5241471,37.8316465 62.1832647,44.9742512 69.7737059,44.9742512 C77.3650588,44.9742512 82.0870882,37.8316465 82.0870882,24.8819721 C82.0870882,11.9359442 77.3650588,4.79151628 69.7737059,4.79151628 C62.1832647,4.79151628 57.5241471,11.9359442 57.5241471,24.8819721 L57.5241471,24.9448744 L57.5241471,24.9448744 Z M52.6133824,24.8181581 C52.6133824,10.9778233 58.4824118,0.453990698 69.7737059,0.453990698 C81.1288235,0.453990698 86.9349412,10.9778233 86.9349412,24.8819721 C86.9349412,37.0002419 82.15,49.3090419 69.7737059,49.3090419 C58.4824118,49.3090419 52.6133824,38.7879442 52.6133824,24.8819721 L52.6133824,24.8181581 L52.6133824,24.8181581 Z" id="Fill-3" fill="#0A0A08"></path>
                    <path d="M107.783353,1.28357209 L107.783353,35.7239628 C107.783353,38.4688744 108.162647,40.892893 110.142088,42.8036651 C111.736765,44.3981023 114.162971,44.9113488 116.521706,44.9113488 C118.880441,44.9113488 121.303,44.3981023 122.965147,42.8036651 C124.940029,40.892893 125.328441,38.4688744 125.328441,35.7239628 L125.328441,1.28357209 L130.108824,1.28357209 L130.108824,36.0430326 C130.108824,40.5090977 129.087647,43.4436279 126.792735,45.7400186 C124.555265,48.0354977 121.176265,49.3090419 116.585529,49.3090419 C111.926412,49.3090419 108.5465,48.0354977 106.251588,45.7400186 C104.019588,43.4436279 102.998412,40.5090977 102.998412,36.0430326 L102.998412,1.28357209 L107.783353,1.28357209" id="Fill-4" fill="#0A0A08"></path>
                    <path d="M150.699206,35.4714419 C151.277265,42.8036651 155.615441,45.1009674 159.185,45.1009674 C164.227971,45.1009674 168.123029,41.7197395 168.123029,35.9163163 C168.123029,28.9633302 162.248529,27.4345302 157.594882,25.9048186 C153.577647,24.5 146.809618,22.1416186 146.809618,13.6570977 C146.745794,5.36493023 151.914588,0.391088372 159.253382,0.391088372 C166.270324,0.391088372 170.797235,4.02574884 171.882235,12.3808186 L167.286941,12.3808186 C166.843824,8.87287442 165.185324,4.47244651 159.379206,4.47244651 C154.594265,4.47244651 151.657471,7.91748837 151.657471,12.8266047 C151.657471,19.0129116 156.3795,20.4815442 162.442735,22.4579535 C166.075206,23.7342326 172.966324,26.2840558 172.966324,35.6610605 C172.966324,44.0170419 166.970559,49.3090419 159.316294,49.3090419 C151.914588,49.3090419 146.302676,44.8457116 146.045559,35.4714419 L150.699206,35.4714419" id="Fill-5" fill="#0A0A08"></path>
                    <path d="M195.603618,5.68308837 L186.038294,5.68308837 L186.038294,1.28357209 L209.958441,1.28357209 L209.958441,5.68308837 L200.388559,5.68308837 L200.388559,48.4821953 L195.603618,48.4821953 L195.603618,5.68308837" id="Fill-6" fill="#0A0A08"></path>
                    <path d="M231.8335,7.4707907 L226.022824,30.176707 L237.635059,30.176707 L231.8335,7.4707907 L231.8335,7.4707907 Z M220.856765,48.4821953 L215.946,48.4821953 L229.406382,1.28357209 L234.128412,1.28357209 L247.773882,48.4821953 L242.926029,48.4821953 L238.913353,34.5133209 L224.748176,34.5133209 L220.856765,48.4821953 L220.856765,48.4821953 Z" id="Fill-7" fill="#0A0A08"></path>
                    <path d="M289.293824,33.1112372 C289.293824,41.2748651 284.508882,49.3090419 274.559706,49.3090419 C264.482882,49.3090419 258.166176,40.8272558 258.166176,24.8819721 C258.166176,9.95771163 263.719735,0.453990698 274.559706,0.453990698 C284.508882,0.453990698 289.361294,8.74433488 289.293824,17.6737302 L284.580912,17.6737302 C284.450529,11.4865116 282.023412,4.91732093 274.816824,4.91732093 C266.589059,4.91732093 263.077853,12.8913302 263.077853,25.3295814 C263.077853,38.722307 268.057,44.8457116 274.816824,44.8457116 C282.087235,44.8457116 284.323794,38.7879442 284.580912,33.1112372 L289.293824,33.1112372" id="Fill-8" fill="#0A0A08"></path>
                    <path d="M304.982559,48.4821953 L304.982559,1.28357209 L309.762029,1.28357209 L309.762029,22.1416186 L326.540324,22.1416186 L326.540324,1.28357209 L331.388176,1.28357209 L331.388176,48.4821953 L326.540324,48.4821953 L326.540324,26.5402233 L309.762029,26.5402233 L309.762029,48.4821953 L304.982559,48.4821953" id="Fill-9" fill="#0A0A08"></path>
                    <path d="M349.687294,1.28357209 L371.824029,1.28357209 L371.824029,5.68308837 L354.472235,5.68308837 L354.472235,22.1416186 L371.824029,22.1416186 L371.824029,26.5402233 L354.472235,26.5402233 L354.472235,44.0826791 L371.824029,44.0826791 L371.824029,48.4821953 L349.687294,48.4821953 L349.687294,1.28357209" id="Fill-10" fill="#0A0A08"></path>
                </g>
                <path d="M32.5737059,195.088372 L32.5737059,166.950065 L40.4586471,195.088372 L43.3945294,195.088372 L50.7342353,166.950065 L50.7342353,195.088372 L53.5862353,195.088372 L53.5862353,164.056558 L48.6791176,164.056558 L41.8846471,190.51747 L34.5868824,164.056558 L29.7217059,164.056558 L29.7217059,195.088372 L32.5737059,195.088372 Z M59.2902353,195.088372 L62.4358235,195.088372 L62.4358235,164.056558 L59.2902353,164.056558 L59.2902353,195.088372 Z M68.2237059,195.088372 L81.2674118,195.088372 L81.2674118,192.194865 L71.3692941,192.194865 L71.3692941,164.056558 L68.2237059,164.056558 L68.2237059,195.088372 Z M84.7485294,195.088372 L87.8941176,195.088372 L87.8941176,180.117619 L98.2535882,195.088372 L101.986353,195.088372 L90.9977647,179.404726 L101.189471,164.056558 L97.6244706,164.056558 L87.8941176,179.069247 L87.8941176,164.056558 L84.7485294,164.056558 L84.7485294,195.088372 Z M133.190588,176.217674 L129.373941,184.185302 L124.005471,177.853135 C126.815529,176.343479 129.583647,173.785451 129.583647,170.179051 C129.583647,166.740391 126.899412,163.511405 123.082765,163.511405 C119.391941,163.511405 116.414118,166.404912 116.414118,170.388726 C116.498,173.366102 118.049824,175.085433 119.811353,177.140242 C116.665765,178.607963 113.100765,181.58534 113.100765,186.785265 C113.100765,191.356167 116.330235,195.633526 121.447059,195.633526 C126.018647,195.633526 128.283471,191.481972 129.835294,189.091684 L135.119882,195.381916 L137.258882,193.452912 L131.261294,186.449786 L136.294235,176.217674 L133.190588,176.217674 Z M123.082765,166.111367 C125.263706,166.111367 126.689706,168.124242 126.689706,170.137116 C126.689706,172.48547 125.263706,174.078995 122.369765,175.714456 C120.734059,173.911256 119.308059,172.443535 119.308059,170.095181 C119.308059,168.082307 120.566294,166.111367 123.040824,166.111367 L123.082765,166.111367 Z M127.864059,186.8272 C126.941353,188.71427 125.179824,192.656149 121.698706,192.656149 C118.343412,192.656149 116.330235,189.720707 116.288294,186.533656 C116.330235,184.101433 117.462647,181.543405 121.740647,179.44666 L127.864059,186.8272 Z M167.246824,184.982065 C167.079059,188.71427 165.611118,192.698084 160.829824,192.698084 C156.384059,192.698084 153.112647,188.672335 153.112647,179.866009 C153.112647,171.688707 155.419412,166.446847 160.829824,166.446847 C165.569176,166.446847 167.162941,170.76614 167.246824,174.833823 L170.350471,174.833823 C170.392412,168.96294 167.204882,163.511405 160.662059,163.511405 C153.532059,163.511405 149.883176,169.759702 149.883176,179.572465 C149.883176,190.056186 154.035353,195.633526 160.662059,195.633526 C167.204882,195.633526 170.350471,190.34973 170.350471,184.982065 L167.246824,184.982065 Z M173.118588,179.572465 C173.118588,188.71427 176.977176,195.633526 184.400765,195.633526 C192.537353,195.633526 195.682941,187.540093 195.682941,179.572465 C195.682941,170.43066 191.866294,163.511405 184.400765,163.511405 C176.977176,163.511405 173.118588,170.43066 173.118588,179.53053 L173.118588,179.572465 Z M176.348059,179.572465 C176.348059,171.059684 179.409765,166.362977 184.400765,166.362977 C189.391765,166.362977 192.495412,171.059684 192.495412,179.572465 C192.495412,188.085247 189.391765,192.781953 184.400765,192.781953 C179.409765,192.781953 176.348059,188.085247 176.348059,179.6144 L176.348059,179.572465 Z M198.828529,179.572465 C198.828529,188.71427 202.687118,195.633526 210.110706,195.633526 C218.247294,195.633526 221.392882,187.540093 221.392882,179.572465 C221.392882,170.43066 217.576235,163.511405 210.110706,163.511405 C202.687118,163.511405 198.828529,170.43066 198.828529,179.53053 L198.828529,179.572465 Z M202.058,179.572465 C202.058,171.059684 205.119706,166.362977 210.110706,166.362977 C215.101706,166.362977 218.205353,171.059684 218.205353,179.572465 C218.205353,188.085247 215.101706,192.781953 210.110706,192.781953 C205.119706,192.781953 202.058,188.085247 202.058,179.6144 L202.058,179.572465 Z M225.796706,195.088372 L228.942294,195.088372 L228.942294,180.117619 L239.301765,195.088372 L243.034529,195.088372 L232.045941,179.404726 L242.237647,164.056558 L238.672647,164.056558 L228.942294,179.069247 L228.942294,164.056558 L225.796706,164.056558 L225.796706,195.088372 Z M245.257412,195.088372 L248.403,195.088372 L248.403,164.056558 L245.257412,164.056558 L245.257412,195.088372 Z M254.190882,195.088372 L268.744471,195.088372 L268.744471,192.194865 L257.336471,192.194865 L257.336471,180.662772 L268.744471,180.662772 L268.744471,177.769265 L257.336471,177.769265 L257.336471,166.950065 L268.744471,166.950065 L268.744471,164.056558 L254.190882,164.056558 L254.190882,195.088372 Z M284.094941,195.088372 L291.644353,195.088372 C293.867235,195.088372 295.796529,194.543219 297.054765,193.578716 C299.235706,192.194865 300.493941,189.846512 300.493941,186.533656 C300.493941,183.640149 299.235706,179.78214 294.706059,178.482158 C296.845059,177.72733 299.026,175.966065 299.026,171.856447 C299.026,169.591963 298.396882,167.033935 296.341765,165.608149 C295.167412,164.601712 293.531706,164.056558 290.553882,164.056558 L284.094941,164.056558 L284.094941,195.088372 Z M287.240529,166.866195 L290.008647,166.866195 C292.315412,166.866195 293.238118,167.201674 293.909176,167.704893 C294.873824,168.375851 295.796529,169.927442 295.796529,172.108056 C295.796529,173.911256 295.419059,175.546716 293.867235,176.678958 C293.112294,177.224112 292.021824,177.475721 290.679706,177.475721 L287.240529,177.475721 L287.240529,166.866195 Z M287.240529,180.285358 L290.721647,180.285358 C292.692882,180.285358 293.909176,180.536967 294.831882,181.165991 C296.257882,182.088558 297.306412,184.017563 297.306412,186.407851 C297.264471,189.007814 296.425647,190.643274 294.831882,191.481972 C293.993059,192.027126 292.818706,192.278735 291.099118,192.278735 L287.240529,192.278735 L287.240529,180.285358 Z M304.855824,164.056558 L304.855824,186.91107 C304.855824,189.846512 305.526882,191.775516 306.994824,193.285172 C308.504706,194.794828 310.727588,195.633526 313.789294,195.633526 C316.809059,195.633526 319.031941,194.794828 320.499882,193.285172 C322.009765,191.775516 322.680824,189.846512 322.680824,186.91107 L322.680824,164.056558 L319.535235,164.056558 L319.535235,186.701395 C319.535235,188.504595 319.283588,190.098121 317.983412,191.356167 C316.892941,192.40454 315.299176,192.740019 313.747353,192.740019 C312.195529,192.740019 310.601765,192.40454 309.553235,191.356167 C308.253059,190.098121 308.001412,188.504595 308.001412,186.701395 L308.001412,164.056558 L304.855824,164.056558 Z M326.874941,186.533656 C327.042706,192.698084 330.733529,195.633526 335.598706,195.633526 C340.631647,195.633526 344.574118,192.15293 344.574118,186.65946 C344.574118,180.495033 340.044471,178.817637 337.653824,177.97894 C333.669412,176.678958 330.565765,175.714456 330.565765,171.646772 C330.565765,168.417786 332.495059,166.153302 335.640647,166.153302 C339.457294,166.153302 340.547765,169.046809 340.841353,171.353228 L343.861118,171.353228 C343.148118,165.859758 340.170294,163.46947 335.556765,163.46947 C330.733529,163.46947 327.336294,166.740391 327.378235,172.191926 C327.378235,177.769265 331.824,179.320856 334.466294,180.243423 C337.528,181.24986 341.386588,182.256298 341.386588,186.8272 C341.386588,190.643274 338.828176,192.865823 335.514824,192.865823 C333.166118,192.865823 330.314118,191.356167 329.936647,186.533656 L326.874941,186.533656 Z" id="MILK-&amp;-COOKIE-BUS" fill="#000000"></path>
            </g>
        </g>
    </g>
</svg>